<svg xmlns="http://www.w3.org/2000/svg" xmlns:xlink="http://www.w3.org/1999/xlink" version="1.0" x="0px" y="0px" viewBox="0 0 100 125" enable-background="new 0 0 100 100" xml:space="preserve">
    <path fill="none" stroke="#fff" stroke-linecap="round" stroke-linejoin="round" stroke-miterlimit="10" d="M10,10v8.237h6.176  l1.6-3.197c0.253-0.506,0.922-0.921,1.488-0.921h10.295c0.566,0,1.236,0.415,1.489,0.921l1.598,3.197h47.355V10H10z" />
    <rect x="10" y="24.413" fill="none" stroke="#fff" stroke-linecap="round" stroke-linejoin="round" stroke-miterlimit="10" width="6.176" height="55.588" />
    <rect x="10" y="24.413" fill="none" stroke="#fff" stroke-linecap="round" stroke-linejoin="round" stroke-miterlimit="10" width="6.176" height="6.177" />
    <rect x="20.294" y="25.958" fill="none" stroke="#fff" stroke-linecap="round" stroke-linejoin="round" stroke-miterlimit="10" width="8.234" height="3.087" />
    <rect x="32.646" y="25.958" fill="none" stroke="#fff" stroke-linecap="round" stroke-linejoin="round" stroke-miterlimit="10" width="16.471" height="3.087" />
    <rect x="28.529" y="32.133" fill="none" stroke="#fff" stroke-linecap="round" stroke-linejoin="round" stroke-miterlimit="10" width="20.588" height="3.089" />
    <rect x="53.235" y="32.133" fill="none" stroke="#fff" stroke-linecap="round" stroke-linejoin="round" stroke-miterlimit="10" width="12.353" height="3.089" />
    <rect x="28.529" y="38.309" fill="none" stroke="#fff" stroke-linecap="round" stroke-linejoin="round" stroke-miterlimit="10" width="4.117" height="3.09" />
    <rect x="36.765" y="38.309" fill="none" stroke="#fff" stroke-linecap="round" stroke-linejoin="round" stroke-miterlimit="10" width="20.587" height="3.09" />
    <rect x="61.471" y="38.309" fill="none" stroke="#fff" stroke-linecap="round" stroke-linejoin="round" stroke-miterlimit="10" width="12.354" height="3.09" />
    <rect x="28.529" y="44.485" fill="none" stroke="#fff" stroke-linecap="round" stroke-linejoin="round" stroke-miterlimit="10" width="16.469" height="3.089" />
    <rect x="49.117" y="44.485" fill="none" stroke="#fff" stroke-linecap="round" stroke-linejoin="round" stroke-miterlimit="10" width="20.587" height="3.089" />
    <rect x="20.294" y="50.662" fill="none" stroke="#fff" stroke-linecap="round" stroke-linejoin="round" stroke-miterlimit="10" width="4.116" height="3.089" />
    <rect x="28.53" y="50.662" fill="none" stroke="#fff" stroke-linecap="round" stroke-linejoin="round" stroke-miterlimit="10" width="20.588" height="3.089" />
    <rect x="53.235" y="50.662" fill="none" stroke="#fff" stroke-linecap="round" stroke-linejoin="round" stroke-miterlimit="10" width="4.117" height="3.089" />
    <rect x="10" y="30.59" fill="none" stroke="#fff" stroke-linecap="round" stroke-linejoin="round" stroke-miterlimit="10" width="6.176" height="6.175" />
    <rect x="10" y="36.765" fill="none" stroke="#fff" stroke-linecap="round" stroke-linejoin="round" stroke-miterlimit="10" width="6.176" height="6.178" />
    <rect x="10" y="42.942" fill="none" stroke="#fff" stroke-linecap="round" stroke-linejoin="round" stroke-miterlimit="10" width="6.176" height="6.177" />
    <rect x="10" y="49.119" fill="none" stroke="#fff" stroke-linecap="round" stroke-linejoin="round" stroke-miterlimit="10" width="6.176" height="6.177" />
    <rect x="10" y="55.296" fill="none" stroke="#fff" stroke-linecap="round" stroke-linejoin="round" stroke-miterlimit="10" width="6.176" height="6.177" />
    <rect x="10" y="61.473" fill="none" stroke="#fff" stroke-linecap="round" stroke-linejoin="round" stroke-miterlimit="10" width="6.176" height="6.176" />
    <rect x="10" y="67.648" fill="none" stroke="#fff" stroke-linecap="round" stroke-linejoin="round" stroke-miterlimit="10" width="6.176" height="6.177" />
    <rect x="10" y="73.825" fill="none" stroke="#fff" stroke-linecap="round" stroke-linejoin="round" stroke-miterlimit="10" width="6.176" height="6.176" />
    <rect x="74.339" y="12.574" fill="none" stroke="#fff" stroke-linecap="round" stroke-linejoin="round" stroke-miterlimit="10" width="3.089" height="3.09" />
    <rect x="69.193" y="12.574" fill="none" stroke="#fff" stroke-linecap="round" stroke-linejoin="round" stroke-miterlimit="10" width="3.087" height="3.09" />
    <rect x="64.046" y="12.574" fill="none" stroke="#fff" stroke-linecap="round" stroke-linejoin="round" stroke-miterlimit="10" width="3.087" height="3.09" />
    <path fill="none" stroke="#fff" stroke-linecap="round" stroke-linejoin="round" stroke-miterlimit="10" d="M41.344,15.04  c-0.254-0.506-0.924-0.921-1.49-0.921H29.559c0.566,0,1.236,0.415,1.489,0.921l1.598,3.197h2.047h8.249L41.344,15.04z" />
    <path fill="none" stroke="#fff" stroke-linecap="round" stroke-linejoin="round" stroke-miterlimit="10" d="M74.519,64.422  L70.48,80.576L74.519,64.422z" />
    <polygon fill="none" stroke="#fff" stroke-linecap="round" stroke-linejoin="round" stroke-miterlimit="10" points="  78.556,76.536 82.597,72.495 78.556,68.463 82.597,72.495 " />
    <polygon fill="none" stroke="#fff" stroke-linecap="round" stroke-linejoin="round" stroke-miterlimit="10" points="  66.442,68.463 62.404,72.499 66.442,76.536 62.404,72.499 " />
    <circle fill="none" stroke="#fff" stroke-linecap="round" stroke-linejoin="round" stroke-miterlimit="10" cx="72.5" cy="72.499" r="17.5" />
    <path fill="none" stroke="#fff" stroke-linecap="round" stroke-linejoin="round" stroke-miterlimit="10" d="M54.999,72.499  c0-9.665,7.834-17.501,17.502-17.501c2.688,0,5.225,0.625,7.5,1.707V18.237H32.643h0.003l-1.598-3.197  c-0.253-0.506-0.923-0.921-1.489-0.921H19.264c-0.566,0-1.235,0.415-1.488,0.921l-1.6,3.197h0.005H10v61.764h46.706  C55.623,77.726,54.999,75.188,54.999,72.499z" />
    <path fill="none" stroke="#fff" stroke-linecap="round" stroke-linejoin="round" stroke-miterlimit="10" d="M55.321,69.191H28.53  v3.089h26.48C55.023,71.226,55.13,70.194,55.321,69.191z" />
    <rect x="24.412" y="63.017" fill="none" stroke="#fff" stroke-linecap="round" stroke-linejoin="round" stroke-miterlimit="10" width="4.118" height="3.088" />
    <path fill="none" stroke="#fff" stroke-linecap="round" stroke-linejoin="round" stroke-miterlimit="10" d="M32.65,63.017v3.088  h23.571c0.429-1.087,0.957-2.12,1.585-3.088H32.65z" />
    <path fill="none" stroke="#fff" stroke-linecap="round" stroke-linejoin="round" stroke-miterlimit="10" d="M64.72,56.84H24.412  v3.088h35.929C61.626,58.685,63.102,57.646,64.72,56.84z" />
</svg>
