<svg xmlns="http://www.w3.org/2000/svg" xmlns:xlink="http://www.w3.org/1999/xlink" version="1.1" x="0px" y="0px" viewBox="0 0 100 125" enable-background="new 0 0 100 100" xml:space="preserve">
    <g>
        <path fill="#fff" d="M68.664,77.086c-14.935,0-27.085-12.15-27.085-27.086c0-14.935,12.151-27.085,27.085-27.085   C83.6,22.915,95.75,35.065,95.75,50C95.75,64.936,83.6,77.086,68.664,77.086z M68.664,25.915c-13.28,0-24.085,10.805-24.085,24.085   c0,13.281,10.805,24.086,24.085,24.086C81.945,74.086,92.75,63.281,92.75,50C92.75,36.719,81.945,25.915,68.664,25.915z" />
    </g>
    <g>
        <path fill="#fff" d="M69.85,53.591c-0.204,0-0.408-0.041-0.601-0.125l-15.892-6.941c-0.759-0.332-1.105-1.216-0.774-1.975   c0.331-0.758,1.217-1.105,1.976-0.774l13.791,6.023V36.388c0-0.829,0.672-1.5,1.5-1.5s1.5,0.671,1.5,1.5v15.703   c0,0.506-0.255,0.978-0.679,1.255C70.423,53.508,70.137,53.591,69.85,53.591z" />
    </g>
    <g>
        <line fill="#fff" x1="30.462" y1="52.091" x2="5.265" y2="52.091" />
        <path fill="#fff" d="M30.462,53.591H5.265c-0.829,0-1.5-0.672-1.5-1.5s0.671-1.5,1.5-1.5h25.197c0.829,0,1.5,0.672,1.5,1.5   S31.291,53.591,30.462,53.591z" />
    </g>
    <g>
        <line fill="#fff" x1="37.992" y1="40.506" x2="12.795" y2="40.506" />
        <path fill="#fff" d="M37.992,42.006H12.795c-0.829,0-1.5-0.671-1.5-1.5s0.671-1.5,1.5-1.5h25.197c0.829,0,1.5,0.671,1.5,1.5   S38.82,42.006,37.992,42.006z" />
    </g>
    <g>
        <line fill="#fff" x1="33.358" y1="52.091" x2="8.161" y2="52.091" />
        <path fill="#fff" d="M33.358,53.591H8.161c-0.829,0-1.5-0.672-1.5-1.5s0.671-1.5,1.5-1.5h25.197c0.829,0,1.5,0.672,1.5,1.5   S34.187,53.591,33.358,53.591z" />
    </g>
    <g>
        <line fill="#fff" x1="37.992" y1="63.675" x2="12.795" y2="63.675" />
        <path fill="#fff" d="M37.992,65.175H12.795c-0.829,0-1.5-0.672-1.5-1.5s0.671-1.5,1.5-1.5h25.197c0.829,0,1.5,0.672,1.5,1.5   S38.82,65.175,37.992,65.175z" />
    </g>
</svg>
